<svg xmlns="http://www.w3.org/2000/svg" viewBox="0 0 1000 1250" width="1000" height="1250" role="img" aria-label="Singapore Marina Bay skyline in CWG's purple, with an amber sun">
<defs>
  <linearGradient id="sky" x1="0" y1="0" x2="0" y2="1">
    <stop offset="0" stop-color="#ffffff"/><stop offset="0.44" stop-color="#f6f4fb"/>
    <stop offset="0.74" stop-color="#efe9f8"/><stop offset="1" stop-color="#e6ddf2"/>
  </linearGradient>
  <linearGradient id="haze" x1="0" y1="0" x2="0" y2="1">
    <stop offset="0" stop-color="#c9b8e8" stop-opacity="0"/><stop offset="1" stop-color="#bfa9e0" stop-opacity="0.32"/>
  </linearGradient>
  <radialGradient id="sunGlow" cx="0.5" cy="0.5" r="0.5">
    <stop offset="0" stop-color="#ffc97a" stop-opacity="0.5"/><stop offset="0.45" stop-color="#7b2ff0" stop-opacity="0.18"/><stop offset="1" stop-color="#7b2ff0" stop-opacity="0"/>
  </radialGradient>
  <radialGradient id="sun" cx="0.5" cy="0.44" r="0.56">
    <stop offset="0" stop-color="#ffe9bf"/><stop offset="0.55" stop-color="#ffba52"/><stop offset="1" stop-color="#f59324"/>
  </radialGradient>
  <linearGradient id="water" x1="0" y1="0" x2="0" y2="1">
    <stop offset="0" stop-color="#e9e4f3"/><stop offset="1" stop-color="#f8f6fc"/>
  </linearGradient>
  <linearGradient id="reflect" x1="0" y1="0" x2="0" y2="1">
    <stop offset="0" stop-color="#ffba52" stop-opacity="0.5"/><stop offset="1" stop-color="#ffba52" stop-opacity="0"/>
  </linearGradient>
</defs>
<rect width="1000" height="1250" fill="url(#sky)"/><rect x="0" y="860" width="1000" height="190" fill="url(#haze)"/><circle cx="545" cy="415" r="240" fill="url(#sunGlow)"/><circle cx="545" cy="415" r="92" fill="url(#sun)"/><circle cx="545" cy="415" r="132" fill="none" stroke="#a06be0" stroke-opacity="0.35" stroke-width="1.2"/><g><rect x="700" y="800" width="30" height="204" fill="#9b86d6" opacity="0.55"/><rect x="735" y="772" width="40" height="232" fill="#9b86d6" opacity="0.55"/><rect x="815" y="784" width="46" height="220" fill="#9b86d6" opacity="0.55"/><rect x="866" y="820" width="26" height="184" fill="#9b86d6" opacity="0.55"/></g><g><line x1="96" y1="1004" x2="120" y2="840" stroke="#4d12a6" stroke-width="7"/><line x1="156" y1="1004" x2="132" y2="840" stroke="#4d12a6" stroke-width="7"/><circle cx="126" cy="840" r="74" fill="none" stroke="#4d12a6" stroke-width="6"/><line x1="126" y1="840" x2="200.0" y2="840.0" stroke="#4d12a6" stroke-width="1.3" opacity="0.85"/><circle cx="200.0" cy="840.0" r="3.1" fill="#4d12a6"/><line x1="126" y1="840" x2="196.4" y2="862.9" stroke="#4d12a6" stroke-width="1.3" opacity="0.85"/><circle cx="196.4" cy="862.9" r="3.1" fill="#4d12a6"/><line x1="126" y1="840" x2="185.9" y2="883.5" stroke="#4d12a6" stroke-width="1.3" opacity="0.85"/><circle cx="185.9" cy="883.5" r="3.1" fill="#4d12a6"/><line x1="126" y1="840" x2="169.5" y2="899.9" stroke="#4d12a6" stroke-width="1.3" opacity="0.85"/><circle cx="169.5" cy="899.9" r="3.1" fill="#4d12a6"/><line x1="126" y1="840" x2="148.9" y2="910.4" stroke="#4d12a6" stroke-width="1.3" opacity="0.85"/><circle cx="148.9" cy="910.4" r="3.1" fill="#4d12a6"/><line x1="126" y1="840" x2="126.0" y2="914.0" stroke="#4d12a6" stroke-width="1.3" opacity="0.85"/><circle cx="126.0" cy="914.0" r="3.1" fill="#4d12a6"/><line x1="126" y1="840" x2="103.1" y2="910.4" stroke="#4d12a6" stroke-width="1.3" opacity="0.85"/><circle cx="103.1" cy="910.4" r="3.1" fill="#4d12a6"/><line x1="126" y1="840" x2="82.5" y2="899.9" stroke="#4d12a6" stroke-width="1.3" opacity="0.85"/><circle cx="82.5" cy="899.9" r="3.1" fill="#4d12a6"/><line x1="126" y1="840" x2="66.1" y2="883.5" stroke="#4d12a6" stroke-width="1.3" opacity="0.85"/><circle cx="66.1" cy="883.5" r="3.1" fill="#4d12a6"/><line x1="126" y1="840" x2="55.6" y2="862.9" stroke="#4d12a6" stroke-width="1.3" opacity="0.85"/><circle cx="55.6" cy="862.9" r="3.1" fill="#4d12a6"/><line x1="126" y1="840" x2="52.0" y2="840.0" stroke="#4d12a6" stroke-width="1.3" opacity="0.85"/><circle cx="52.0" cy="840.0" r="3.1" fill="#4d12a6"/><line x1="126" y1="840" x2="55.6" y2="817.1" stroke="#4d12a6" stroke-width="1.3" opacity="0.85"/><circle cx="55.6" cy="817.1" r="3.1" fill="#4d12a6"/><line x1="126" y1="840" x2="66.1" y2="796.5" stroke="#4d12a6" stroke-width="1.3" opacity="0.85"/><circle cx="66.1" cy="796.5" r="3.1" fill="#4d12a6"/><line x1="126" y1="840" x2="82.5" y2="780.1" stroke="#4d12a6" stroke-width="1.3" opacity="0.85"/><circle cx="82.5" cy="780.1" r="3.1" fill="#4d12a6"/><line x1="126" y1="840" x2="103.1" y2="769.6" stroke="#4d12a6" stroke-width="1.3" opacity="0.85"/><circle cx="103.1" cy="769.6" r="3.1" fill="#4d12a6"/><line x1="126" y1="840" x2="126.0" y2="766.0" stroke="#4d12a6" stroke-width="1.3" opacity="0.85"/><circle cx="126.0" cy="766.0" r="3.1" fill="#4d12a6"/><line x1="126" y1="840" x2="148.9" y2="769.6" stroke="#4d12a6" stroke-width="1.3" opacity="0.85"/><circle cx="148.9" cy="769.6" r="3.1" fill="#4d12a6"/><line x1="126" y1="840" x2="169.5" y2="780.1" stroke="#4d12a6" stroke-width="1.3" opacity="0.85"/><circle cx="169.5" cy="780.1" r="3.1" fill="#4d12a6"/><line x1="126" y1="840" x2="185.9" y2="796.5" stroke="#4d12a6" stroke-width="1.3" opacity="0.85"/><circle cx="185.9" cy="796.5" r="3.1" fill="#4d12a6"/><line x1="126" y1="840" x2="196.4" y2="817.1" stroke="#4d12a6" stroke-width="1.3" opacity="0.85"/><circle cx="196.4" cy="817.1" r="3.1" fill="#4d12a6"/><path d="M214 1004 Q258 980 302 1004 Z" fill="#4d12a6"/><path d="M227.0 990 Q206.8 916.0 211.8 898.0 Q216.8 916.0 245.0 990 Z" fill="#4d12a6"/><path d="M236.5 990 Q226.75 925.5 231.75 907.5 Q236.75 925.5 254.5 990 Z" fill="#4d12a6"/><path d="M246.0 990 Q246.7 935.0 251.7 917.0 Q256.7 935.0 264.0 990 Z" fill="#4d12a6"/><path d="M256.5 990 Q268.75 930.5 273.75 912.5 Q278.75 930.5 274.5 990 Z" fill="#4d12a6"/><path d="M267.0 990 Q290.8 920.0 295.8 902.0 Q300.8 920.0 285.0 990 Z" fill="#4d12a6"/><path d="M316 998 Q364 976 412 996" fill="none" stroke="#4d12a6" stroke-width="3"/><line x1="316.0" y1="1002" x2="316.0" y2="998.0" stroke="#4d12a6" stroke-width="1.1" opacity="0.8"/><line x1="325.6" y1="1002" x2="325.6" y2="991.8" stroke="#4d12a6" stroke-width="1.1" opacity="0.8"/><line x1="335.2" y1="1002" x2="335.2" y2="986.2" stroke="#4d12a6" stroke-width="1.1" opacity="0.8"/><line x1="344.8" y1="1002" x2="344.8" y2="981.8" stroke="#4d12a6" stroke-width="1.1" opacity="0.8"/><line x1="354.4" y1="1002" x2="354.4" y2="979.0" stroke="#4d12a6" stroke-width="1.1" opacity="0.8"/><line x1="364.0" y1="1002" x2="364.0" y2="978.0" stroke="#4d12a6" stroke-width="1.1" opacity="0.8"/><line x1="373.6" y1="1002" x2="373.6" y2="979.0" stroke="#4d12a6" stroke-width="1.1" opacity="0.8"/><line x1="383.2" y1="1002" x2="383.2" y2="981.8" stroke="#4d12a6" stroke-width="1.1" opacity="0.8"/><line x1="392.8" y1="1002" x2="392.8" y2="986.2" stroke="#4d12a6" stroke-width="1.1" opacity="0.8"/><line x1="402.4" y1="1002" x2="402.4" y2="991.8" stroke="#4d12a6" stroke-width="1.1" opacity="0.8"/><line x1="412.0" y1="1002" x2="412.0" y2="998.0" stroke="#4d12a6" stroke-width="1.1" opacity="0.8"/><path d="M438 1004 L443 772 L473 772 L478 1004 Z" fill="#4d12a6"/><rect x="455.9" y="898.7" width="2" height="2.6" fill="#ffd9a0" opacity="0.67"/><rect x="456.4" y="887.7" width="2" height="2.6" fill="#ffd9a0" opacity="0.53"/><rect x="447.1" y="888.5" width="2" height="2.6" fill="#ffd9a0" opacity="0.55"/><rect x="467.2" y="800.0" width="2" height="2.6" fill="#ffd9a0" opacity="0.42"/><rect x="444.0" y="951.6" width="2" height="2.6" fill="#ffd9a0" opacity="0.58"/><rect x="442.4" y="988.2" width="2" height="2.6" fill="#ffd9a0" opacity="0.69"/><rect x="462.6" y="910.5" width="2" height="2.6" fill="#ffd9a0" opacity="0.36"/><rect x="441.5" y="892.0" width="2" height="2.6" fill="#ffd9a0" opacity="0.32"/><rect x="447.3" y="831.3" width="2" height="2.6" fill="#ffd9a0" opacity="0.31"/><rect x="456.3" y="873.4" width="2" height="2.6" fill="#ffd9a0" opacity="0.64"/><rect x="458.1" y="915.7" width="2" height="2.6" fill="#ffd9a0" opacity="0.50"/><rect x="462.9" y="877.0" width="2" height="2.6" fill="#ffd9a0" opacity="0.41"/><rect x="473.9" y="991.1" width="2" height="2.6" fill="#ffd9a0" opacity="0.64"/><rect x="464.4" y="846.8" width="2" height="2.6" fill="#ffd9a0" opacity="0.39"/><rect x="450.5" y="794.9" width="2" height="2.6" fill="#ffd9a0" opacity="0.61"/><rect x="454.2" y="959.5" width="2" height="2.6" fill="#ffd9a0" opacity="0.45"/><rect x="472.6" y="959.6" width="2" height="2.6" fill="#ffd9a0" opacity="0.30"/><rect x="447.9" y="973.0" width="2" height="2.6" fill="#ffd9a0" opacity="0.49"/><rect x="473.4" y="864.3" width="2" height="2.6" fill="#ffd9a0" opacity="0.33"/><rect x="461.8" y="945.0" width="2" height="2.6" fill="#ffd9a0" opacity="0.41"/><rect x="442" y="772" width="32" height="2.5" fill="#ffb84d" opacity="0.55"/><path d="M514 1004 L519 764 L549 764 L554 1004 Z" fill="#4d12a6"/><rect x="519.9" y="845.2" width="2" height="2.6" fill="#ffd9a0" opacity="0.69"/><rect x="542.0" y="798.0" width="2" height="2.6" fill="#ffd9a0" opacity="0.40"/><rect x="520.3" y="785.2" width="2" height="2.6" fill="#ffd9a0" opacity="0.62"/><rect x="522.9" y="895.0" width="2" height="2.6" fill="#ffd9a0" opacity="0.48"/><rect x="523.3" y="933.0" width="2" height="2.6" fill="#ffd9a0" opacity="0.35"/><rect x="538.2" y="797.6" width="2" height="2.6" fill="#ffd9a0" opacity="0.47"/><rect x="524.0" y="831.4" width="2" height="2.6" fill="#ffd9a0" opacity="0.69"/><rect x="543.5" y="838.9" width="2" height="2.6" fill="#ffd9a0" opacity="0.65"/><rect x="524.0" y="858.7" width="2" height="2.6" fill="#ffd9a0" opacity="0.64"/><rect x="538.2" y="794.1" width="2" height="2.6" fill="#ffd9a0" opacity="0.70"/><rect x="524.0" y="828.8" width="2" height="2.6" fill="#ffd9a0" opacity="0.61"/><rect x="527.9" y="837.2" width="2" height="2.6" fill="#ffd9a0" opacity="0.33"/><rect x="520.0" y="900.2" width="2" height="2.6" fill="#ffd9a0" opacity="0.40"/><rect x="536.8" y="853.8" width="2" height="2.6" fill="#ffd9a0" opacity="0.48"/><rect x="548.7" y="878.4" width="2" height="2.6" fill="#ffd9a0" opacity="0.53"/><rect x="545.6" y="812.2" width="2" height="2.6" fill="#ffd9a0" opacity="0.36"/><rect x="547.0" y="951.9" width="2" height="2.6" fill="#ffd9a0" opacity="0.40"/><rect x="523.3" y="934.7" width="2" height="2.6" fill="#ffd9a0" opacity="0.68"/><rect x="523.5" y="981.0" width="2" height="2.6" fill="#ffd9a0" opacity="0.65"/><rect x="536.9" y="864.7" width="2" height="2.6" fill="#ffd9a0" opacity="0.34"/><rect x="518.3" y="983.8" width="2" height="2.6" fill="#ffd9a0" opacity="0.40"/><rect x="518" y="764" width="32" height="2.5" fill="#ffb84d" opacity="0.55"/><path d="M590 1004 L595 770 L625 770 L630 1004 Z" fill="#4d12a6"/><rect x="616.3" y="833.0" width="2" height="2.6" fill="#ffd9a0" opacity="0.63"/><rect x="612.7" y="840.8" width="2" height="2.6" fill="#ffd9a0" opacity="0.37"/><rect x="616.8" y="792.7" width="2" height="2.6" fill="#ffd9a0" opacity="0.39"/><rect x="611.5" y="960.4" width="2" height="2.6" fill="#ffd9a0" opacity="0.55"/><rect x="602.2" y="974.3" width="2" height="2.6" fill="#ffd9a0" opacity="0.38"/><rect x="593.5" y="835.6" width="2" height="2.6" fill="#ffd9a0" opacity="0.48"/><rect x="595.0" y="815.7" width="2" height="2.6" fill="#ffd9a0" opacity="0.45"/><rect x="611.9" y="806.2" width="2" height="2.6" fill="#ffd9a0" opacity="0.44"/><rect x="622.4" y="987.8" width="2" height="2.6" fill="#ffd9a0" opacity="0.56"/><rect x="615.8" y="903.1" width="2" height="2.6" fill="#ffd9a0" opacity="0.36"/><rect x="594.2" y="781.8" width="2" height="2.6" fill="#ffd9a0" opacity="0.66"/><rect x="616.1" y="984.0" width="2" height="2.6" fill="#ffd9a0" opacity="0.31"/><rect x="614.0" y="881.2" width="2" height="2.6" fill="#ffd9a0" opacity="0.59"/><rect x="603.5" y="991.9" width="2" height="2.6" fill="#ffd9a0" opacity="0.33"/><rect x="611.0" y="935.7" width="2" height="2.6" fill="#ffd9a0" opacity="0.66"/><rect x="617.3" y="928.6" width="2" height="2.6" fill="#ffd9a0" opacity="0.62"/><rect x="623.2" y="853.3" width="2" height="2.6" fill="#ffd9a0" opacity="0.57"/><rect x="622.7" y="964.4" width="2" height="2.6" fill="#ffd9a0" opacity="0.47"/><rect x="619.1" y="962.8" width="2" height="2.6" fill="#ffd9a0" opacity="0.53"/><rect x="613.6" y="859.8" width="2" height="2.6" fill="#ffd9a0" opacity="0.53"/><rect x="613.1" y="795.2" width="2" height="2.6" fill="#ffd9a0" opacity="0.56"/><rect x="594" y="770" width="32" height="2.5" fill="#ffb84d" opacity="0.55"/><path d="M426 760 Q546 740 706 752 L706 776 Q546 764 426 782 Z" fill="#3d0e85"/><path d="M426 760 Q546 740 706 752" fill="none" stroke="#ffb84d" stroke-width="1.5" opacity="0.5"/><rect x="652.0" y="832.0" width="26.0" height="172.0" fill="#4d12a6"/><rect x="652.0" y="832.0" width="26.0" height="2" fill="#ffb84d" opacity="0.5"/><rect x="673.9" y="973.7" width="2" height="2.6" fill="#ffd9a0" opacity="0.59"/><rect x="662.4" y="951.7" width="2" height="2.6" fill="#ffd9a0" opacity="0.53"/><rect x="663.4" y="967.4" width="2" height="2.6" fill="#ffd9a0" opacity="0.33"/><rect x="669.3" y="844.5" width="2" height="2.6" fill="#ffd9a0" opacity="0.54"/><rect x="664.1" y="875.0" width="2" height="2.6" fill="#ffd9a0" opacity="0.58"/><rect x="664.4" y="933.4" width="2" height="2.6" fill="#ffd9a0" opacity="0.67"/><rect x="659.9" y="841.7" width="2" height="2.6" fill="#ffd9a0" opacity="0.42"/><rect x="667.9" y="870.8" width="2" height="2.6" fill="#ffd9a0" opacity="0.37"/><rect x="672.2" y="940.3" width="2" height="2.6" fill="#ffd9a0" opacity="0.48"/><rect x="671.9" y="889.7" width="2" height="2.6" fill="#ffd9a0" opacity="0.57"/><rect x="658.8" y="905.5" width="2" height="2.6" fill="#ffd9a0" opacity="0.62"/><rect x="682.0" y="796.0" width="34.0" height="208.0" fill="#4d12a6"/><rect x="682.0" y="796.0" width="34.0" height="2" fill="#ffb84d" opacity="0.5"/><rect x="709.7" y="969.5" width="2" height="2.6" fill="#ffd9a0" opacity="0.45"/><rect x="700.7" y="863.5" width="2" height="2.6" fill="#ffd9a0" opacity="0.35"/><rect x="698.4" y="961.4" width="2" height="2.6" fill="#ffd9a0" opacity="0.64"/><rect x="704.2" y="982.6" width="2" height="2.6" fill="#ffd9a0" opacity="0.41"/><rect x="689.6" y="888.7" width="2" height="2.6" fill="#ffd9a0" opacity="0.41"/><rect x="690.8" y="881.8" width="2" height="2.6" fill="#ffd9a0" opacity="0.55"/><rect x="698.3" y="863.3" width="2" height="2.6" fill="#ffd9a0" opacity="0.64"/><rect x="711.5" y="889.1" width="2" height="2.6" fill="#ffd9a0" opacity="0.33"/><rect x="685.9" y="968.1" width="2" height="2.6" fill="#ffd9a0" opacity="0.32"/><rect x="704.1" y="911.3" width="2" height="2.6" fill="#ffd9a0" opacity="0.42"/><rect x="706.4" y="807.6" width="2" height="2.6" fill="#ffd9a0" opacity="0.35"/><rect x="697.3" y="808.6" width="2" height="2.6" fill="#ffd9a0" opacity="0.63"/><rect x="691.4" y="830.5" width="2" height="2.6" fill="#ffd9a0" opacity="0.32"/><rect x="702.0" y="887.9" width="2" height="2.6" fill="#ffd9a0" opacity="0.55"/><rect x="702.7" y="955.8" width="2" height="2.6" fill="#ffd9a0" opacity="0.68"/><rect x="703.5" y="841.5" width="2" height="2.6" fill="#ffd9a0" opacity="0.49"/><rect x="689.8" y="806.0" width="2" height="2.6" fill="#ffd9a0" opacity="0.49"/><rect x="720.0" y="840.0" width="30.0" height="164.0" fill="#4d12a6"/><rect x="720.0" y="840.0" width="30.0" height="2" fill="#ffb84d" opacity="0.5"/><rect x="739.4" y="873.8" width="2" height="2.6" fill="#ffd9a0" opacity="0.41"/><rect x="731.0" y="948.4" width="2" height="2.6" fill="#ffd9a0" opacity="0.51"/><rect x="737.1" y="956.9" width="2" height="2.6" fill="#ffd9a0" opacity="0.46"/><rect x="741.2" y="978.5" width="2" height="2.6" fill="#ffd9a0" opacity="0.33"/><rect x="744.4" y="952.0" width="2" height="2.6" fill="#ffd9a0" opacity="0.35"/><rect x="733.4" y="938.1" width="2" height="2.6" fill="#ffd9a0" opacity="0.66"/><rect x="731.7" y="929.9" width="2" height="2.6" fill="#ffd9a0" opacity="0.65"/><rect x="741.3" y="984.0" width="2" height="2.6" fill="#ffd9a0" opacity="0.49"/><rect x="738.0" y="877.5" width="2" height="2.6" fill="#ffd9a0" opacity="0.59"/><rect x="741.8" y="940.4" width="2" height="2.6" fill="#ffd9a0" opacity="0.59"/><rect x="727.9" y="977.6" width="2" height="2.6" fill="#ffd9a0" opacity="0.69"/><rect x="745.5" y="925.3" width="2" height="2.6" fill="#ffd9a0" opacity="0.62"/><rect x="754.0" y="804.0" width="40.0" height="200.0" fill="#4d12a6"/><rect x="754.0" y="804.0" width="40.0" height="2" fill="#ffb84d" opacity="0.5"/><rect x="767.6" y="975.8" width="2" height="2.6" fill="#ffd9a0" opacity="0.64"/><rect x="768.5" y="826.9" width="2" height="2.6" fill="#ffd9a0" opacity="0.48"/><rect x="775.2" y="950.3" width="2" height="2.6" fill="#ffd9a0" opacity="0.49"/><rect x="757.9" y="957.6" width="2" height="2.6" fill="#ffd9a0" opacity="0.33"/><rect x="783.4" y="843.1" width="2" height="2.6" fill="#ffd9a0" opacity="0.43"/><rect x="783.0" y="837.3" width="2" height="2.6" fill="#ffd9a0" opacity="0.36"/><rect x="774.0" y="942.2" width="2" height="2.6" fill="#ffd9a0" opacity="0.64"/><rect x="779.7" y="982.2" width="2" height="2.6" fill="#ffd9a0" opacity="0.50"/><rect x="788.3" y="827.5" width="2" height="2.6" fill="#ffd9a0" opacity="0.39"/><rect x="774.4" y="864.2" width="2" height="2.6" fill="#ffd9a0" opacity="0.59"/><rect x="778.1" y="906.1" width="2" height="2.6" fill="#ffd9a0" opacity="0.64"/><rect x="775.5" y="868.1" width="2" height="2.6" fill="#ffd9a0" opacity="0.45"/><rect x="784.9" y="974.1" width="2" height="2.6" fill="#ffd9a0" opacity="0.38"/><rect x="785.1" y="986.3" width="2" height="2.6" fill="#ffd9a0" opacity="0.51"/><rect x="775.9" y="848.2" width="2" height="2.6" fill="#ffd9a0" opacity="0.51"/><rect x="773.6" y="920.9" width="2" height="2.6" fill="#ffd9a0" opacity="0.31"/><rect x="789.0" y="904.9" width="2" height="2.6" fill="#ffd9a0" opacity="0.46"/><rect x="783.4" y="913.3" width="2" height="2.6" fill="#ffd9a0" opacity="0.50"/><rect x="779.8" y="823.9" width="2" height="2.6" fill="#ffd9a0" opacity="0.52"/><rect x="770.7" y="984.2" width="2" height="2.6" fill="#ffd9a0" opacity="0.67"/><rect x="799.0" y="848.0" width="28.0" height="156.0" fill="#4d12a6"/><rect x="799.0" y="848.0" width="28.0" height="2" fill="#ffb84d" opacity="0.5"/><rect x="807.7" y="920.3" width="2" height="2.6" fill="#ffd9a0" opacity="0.35"/><rect x="811.1" y="966.9" width="2" height="2.6" fill="#ffd9a0" opacity="0.66"/><rect x="812.0" y="899.1" width="2" height="2.6" fill="#ffd9a0" opacity="0.38"/><rect x="815.0" y="981.8" width="2" height="2.6" fill="#ffd9a0" opacity="0.35"/><rect x="818.4" y="859.1" width="2" height="2.6" fill="#ffd9a0" opacity="0.38"/><rect x="806.8" y="949.4" width="2" height="2.6" fill="#ffd9a0" opacity="0.43"/><rect x="809.5" y="940.3" width="2" height="2.6" fill="#ffd9a0" opacity="0.34"/><rect x="817.3" y="872.7" width="2" height="2.6" fill="#ffd9a0" opacity="0.50"/><rect x="807.3" y="882.9" width="2" height="2.6" fill="#ffd9a0" opacity="0.51"/><rect x="811.2" y="907.1" width="2" height="2.6" fill="#ffd9a0" opacity="0.47"/><line x1="767" y1="804" x2="767" y2="766" stroke="#4d12a6" stroke-width="2"/><rect x="850" y="862" width="8" height="142" fill="#4d12a6"/><path d="M826 862 Q854 838 882 862 Q854 871 826 862 Z" fill="#5a17b8"/><line x1="854" y1="862" x2="828.0" y2="842" stroke="#4d12a6" stroke-width="1.1" opacity="0.8"/><line x1="854" y1="862" x2="836.5" y2="842" stroke="#4d12a6" stroke-width="1.1" opacity="0.8"/><line x1="854" y1="862" x2="845.0" y2="842" stroke="#4d12a6" stroke-width="1.1" opacity="0.8"/><line x1="854" y1="862" x2="853.5" y2="842" stroke="#4d12a6" stroke-width="1.1" opacity="0.8"/><line x1="854" y1="862" x2="862.0" y2="842" stroke="#4d12a6" stroke-width="1.1" opacity="0.8"/><line x1="854" y1="862" x2="870.5" y2="842" stroke="#4d12a6" stroke-width="1.1" opacity="0.8"/><line x1="854" y1="862" x2="879.0" y2="842" stroke="#4d12a6" stroke-width="1.1" opacity="0.8"/><rect x="892" y="890" width="8" height="114" fill="#4d12a6"/><path d="M868 890 Q896 866 924 890 Q896 899 868 890 Z" fill="#5a17b8"/><line x1="896" y1="890" x2="870.0" y2="870" stroke="#4d12a6" stroke-width="1.1" opacity="0.8"/><line x1="896" y1="890" x2="878.5" y2="870" stroke="#4d12a6" stroke-width="1.1" opacity="0.8"/><line x1="896" y1="890" x2="887.0" y2="870" stroke="#4d12a6" stroke-width="1.1" opacity="0.8"/><line x1="896" y1="890" x2="895.5" y2="870" stroke="#4d12a6" stroke-width="1.1" opacity="0.8"/><line x1="896" y1="890" x2="904.0" y2="870" stroke="#4d12a6" stroke-width="1.1" opacity="0.8"/><line x1="896" y1="890" x2="912.5" y2="870" stroke="#4d12a6" stroke-width="1.1" opacity="0.8"/><line x1="896" y1="890" x2="921.0" y2="870" stroke="#4d12a6" stroke-width="1.1" opacity="0.8"/><rect x="934" y="848" width="8" height="156" fill="#4d12a6"/><path d="M910 848 Q938 824 966 848 Q938 857 910 848 Z" fill="#5a17b8"/><line x1="938" y1="848" x2="912.0" y2="828" stroke="#4d12a6" stroke-width="1.1" opacity="0.8"/><line x1="938" y1="848" x2="920.5" y2="828" stroke="#4d12a6" stroke-width="1.1" opacity="0.8"/><line x1="938" y1="848" x2="929.0" y2="828" stroke="#4d12a6" stroke-width="1.1" opacity="0.8"/><line x1="938" y1="848" x2="937.5" y2="828" stroke="#4d12a6" stroke-width="1.1" opacity="0.8"/><line x1="938" y1="848" x2="946.0" y2="828" stroke="#4d12a6" stroke-width="1.1" opacity="0.8"/><line x1="938" y1="848" x2="954.5" y2="828" stroke="#4d12a6" stroke-width="1.1" opacity="0.8"/><line x1="938" y1="848" x2="963.0" y2="828" stroke="#4d12a6" stroke-width="1.1" opacity="0.8"/><rect x="0" y="1001" width="1000" height="3" fill="#4d12a6"/></g><rect x="0" y="1004" width="1000" height="246" fill="url(#water)"/><rect x="485" y="1004" width="120" height="246" fill="url(#reflect)" opacity="0.45"/><g opacity="0.10" transform="translate(0,2008) scale(1,-1)"><line x1="96" y1="1004" x2="120" y2="840" stroke="#4d12a6" stroke-width="7"/><line x1="156" y1="1004" x2="132" y2="840" stroke="#4d12a6" stroke-width="7"/><circle cx="126" cy="840" r="74" fill="none" stroke="#4d12a6" stroke-width="6"/><line x1="126" y1="840" x2="200.0" y2="840.0" stroke="#4d12a6" stroke-width="1.3" opacity="0.85"/><circle cx="200.0" cy="840.0" r="3.1" fill="#4d12a6"/><line x1="126" y1="840" x2="196.4" y2="862.9" stroke="#4d12a6" stroke-width="1.3" opacity="0.85"/><circle cx="196.4" cy="862.9" r="3.1" fill="#4d12a6"/><line x1="126" y1="840" x2="185.9" y2="883.5" stroke="#4d12a6" stroke-width="1.3" opacity="0.85"/><circle cx="185.9" cy="883.5" r="3.1" fill="#4d12a6"/><line x1="126" y1="840" x2="169.5" y2="899.9" stroke="#4d12a6" stroke-width="1.3" opacity="0.85"/><circle cx="169.5" cy="899.9" r="3.1" fill="#4d12a6"/><line x1="126" y1="840" x2="148.9" y2="910.4" stroke="#4d12a6" stroke-width="1.3" opacity="0.85"/><circle cx="148.9" cy="910.4" r="3.1" fill="#4d12a6"/><line x1="126" y1="840" x2="126.0" y2="914.0" stroke="#4d12a6" stroke-width="1.3" opacity="0.85"/><circle cx="126.0" cy="914.0" r="3.1" fill="#4d12a6"/><line x1="126" y1="840" x2="103.1" y2="910.4" stroke="#4d12a6" stroke-width="1.3" opacity="0.85"/><circle cx="103.1" cy="910.4" r="3.1" fill="#4d12a6"/><line x1="126" y1="840" x2="82.5" y2="899.9" stroke="#4d12a6" stroke-width="1.3" opacity="0.85"/><circle cx="82.5" cy="899.9" r="3.1" fill="#4d12a6"/><line x1="126" y1="840" x2="66.1" y2="883.5" stroke="#4d12a6" stroke-width="1.3" opacity="0.85"/><circle cx="66.1" cy="883.5" r="3.1" fill="#4d12a6"/><line x1="126" y1="840" x2="55.6" y2="862.9" stroke="#4d12a6" stroke-width="1.3" opacity="0.85"/><circle cx="55.6" cy="862.9" r="3.1" fill="#4d12a6"/><line x1="126" y1="840" x2="52.0" y2="840.0" stroke="#4d12a6" stroke-width="1.3" opacity="0.85"/><circle cx="52.0" cy="840.0" r="3.1" fill="#4d12a6"/><line x1="126" y1="840" x2="55.6" y2="817.1" stroke="#4d12a6" stroke-width="1.3" opacity="0.85"/><circle cx="55.6" cy="817.1" r="3.1" fill="#4d12a6"/><line x1="126" y1="840" x2="66.1" y2="796.5" stroke="#4d12a6" stroke-width="1.3" opacity="0.85"/><circle cx="66.1" cy="796.5" r="3.1" fill="#4d12a6"/><line x1="126" y1="840" x2="82.5" y2="780.1" stroke="#4d12a6" stroke-width="1.3" opacity="0.85"/><circle cx="82.5" cy="780.1" r="3.1" fill="#4d12a6"/><line x1="126" y1="840" x2="103.1" y2="769.6" stroke="#4d12a6" stroke-width="1.3" opacity="0.85"/><circle cx="103.1" cy="769.6" r="3.1" fill="#4d12a6"/><line x1="126" y1="840" x2="126.0" y2="766.0" stroke="#4d12a6" stroke-width="1.3" opacity="0.85"/><circle cx="126.0" cy="766.0" r="3.1" fill="#4d12a6"/><line x1="126" y1="840" x2="148.9" y2="769.6" stroke="#4d12a6" stroke-width="1.3" opacity="0.85"/><circle cx="148.9" cy="769.6" r="3.1" fill="#4d12a6"/><line x1="126" y1="840" x2="169.5" y2="780.1" stroke="#4d12a6" stroke-width="1.3" opacity="0.85"/><circle cx="169.5" cy="780.1" r="3.1" fill="#4d12a6"/><line x1="126" y1="840" x2="185.9" y2="796.5" stroke="#4d12a6" stroke-width="1.3" opacity="0.85"/><circle cx="185.9" cy="796.5" r="3.1" fill="#4d12a6"/><line x1="126" y1="840" x2="196.4" y2="817.1" stroke="#4d12a6" stroke-width="1.3" opacity="0.85"/><circle cx="196.4" cy="817.1" r="3.1" fill="#4d12a6"/><path d="M214 1004 Q258 980 302 1004 Z" fill="#4d12a6"/><path d="M227.0 990 Q206.8 916.0 211.8 898.0 Q216.8 916.0 245.0 990 Z" fill="#4d12a6"/><path d="M236.5 990 Q226.75 925.5 231.75 907.5 Q236.75 925.5 254.5 990 Z" fill="#4d12a6"/><path d="M246.0 990 Q246.7 935.0 251.7 917.0 Q256.7 935.0 264.0 990 Z" fill="#4d12a6"/><path d="M256.5 990 Q268.75 930.5 273.75 912.5 Q278.75 930.5 274.5 990 Z" fill="#4d12a6"/><path d="M267.0 990 Q290.8 920.0 295.8 902.0 Q300.8 920.0 285.0 990 Z" fill="#4d12a6"/><path d="M316 998 Q364 976 412 996" fill="none" stroke="#4d12a6" stroke-width="3"/><line x1="316.0" y1="1002" x2="316.0" y2="998.0" stroke="#4d12a6" stroke-width="1.1" opacity="0.8"/><line x1="325.6" y1="1002" x2="325.6" y2="991.8" stroke="#4d12a6" stroke-width="1.1" opacity="0.8"/><line x1="335.2" y1="1002" x2="335.2" y2="986.2" stroke="#4d12a6" stroke-width="1.1" opacity="0.8"/><line x1="344.8" y1="1002" x2="344.8" y2="981.8" stroke="#4d12a6" stroke-width="1.1" opacity="0.8"/><line x1="354.4" y1="1002" x2="354.4" y2="979.0" stroke="#4d12a6" stroke-width="1.1" opacity="0.8"/><line x1="364.0" y1="1002" x2="364.0" y2="978.0" stroke="#4d12a6" stroke-width="1.1" opacity="0.8"/><line x1="373.6" y1="1002" x2="373.6" y2="979.0" stroke="#4d12a6" stroke-width="1.1" opacity="0.8"/><line x1="383.2" y1="1002" x2="383.2" y2="981.8" stroke="#4d12a6" stroke-width="1.1" opacity="0.8"/><line x1="392.8" y1="1002" x2="392.8" y2="986.2" stroke="#4d12a6" stroke-width="1.1" opacity="0.8"/><line x1="402.4" y1="1002" x2="402.4" y2="991.8" stroke="#4d12a6" stroke-width="1.1" opacity="0.8"/><line x1="412.0" y1="1002" x2="412.0" y2="998.0" stroke="#4d12a6" stroke-width="1.1" opacity="0.8"/><path d="M438 1004 L443 772 L473 772 L478 1004 Z" fill="#4d12a6"/><rect x="455.9" y="898.7" width="2" height="2.6" fill="#ffd9a0" opacity="0.67"/><rect x="456.4" y="887.7" width="2" height="2.6" fill="#ffd9a0" opacity="0.53"/><rect x="447.1" y="888.5" width="2" height="2.6" fill="#ffd9a0" opacity="0.55"/><rect x="467.2" y="800.0" width="2" height="2.6" fill="#ffd9a0" opacity="0.42"/><rect x="444.0" y="951.6" width="2" height="2.6" fill="#ffd9a0" opacity="0.58"/><rect x="442.4" y="988.2" width="2" height="2.6" fill="#ffd9a0" opacity="0.69"/><rect x="462.6" y="910.5" width="2" height="2.6" fill="#ffd9a0" opacity="0.36"/><rect x="441.5" y="892.0" width="2" height="2.6" fill="#ffd9a0" opacity="0.32"/><rect x="447.3" y="831.3" width="2" height="2.6" fill="#ffd9a0" opacity="0.31"/><rect x="456.3" y="873.4" width="2" height="2.6" fill="#ffd9a0" opacity="0.64"/><rect x="458.1" y="915.7" width="2" height="2.6" fill="#ffd9a0" opacity="0.50"/><rect x="462.9" y="877.0" width="2" height="2.6" fill="#ffd9a0" opacity="0.41"/><rect x="473.9" y="991.1" width="2" height="2.6" fill="#ffd9a0" opacity="0.64"/><rect x="464.4" y="846.8" width="2" height="2.6" fill="#ffd9a0" opacity="0.39"/><rect x="450.5" y="794.9" width="2" height="2.6" fill="#ffd9a0" opacity="0.61"/><rect x="454.2" y="959.5" width="2" height="2.6" fill="#ffd9a0" opacity="0.45"/><rect x="472.6" y="959.6" width="2" height="2.6" fill="#ffd9a0" opacity="0.30"/><rect x="447.9" y="973.0" width="2" height="2.6" fill="#ffd9a0" opacity="0.49"/><rect x="473.4" y="864.3" width="2" height="2.6" fill="#ffd9a0" opacity="0.33"/><rect x="461.8" y="945.0" width="2" height="2.6" fill="#ffd9a0" opacity="0.41"/><rect x="442" y="772" width="32" height="2.5" fill="#ffb84d" opacity="0.55"/><path d="M514 1004 L519 764 L549 764 L554 1004 Z" fill="#4d12a6"/><rect x="519.9" y="845.2" width="2" height="2.6" fill="#ffd9a0" opacity="0.69"/><rect x="542.0" y="798.0" width="2" height="2.6" fill="#ffd9a0" opacity="0.40"/><rect x="520.3" y="785.2" width="2" height="2.6" fill="#ffd9a0" opacity="0.62"/><rect x="522.9" y="895.0" width="2" height="2.6" fill="#ffd9a0" opacity="0.48"/><rect x="523.3" y="933.0" width="2" height="2.6" fill="#ffd9a0" opacity="0.35"/><rect x="538.2" y="797.6" width="2" height="2.6" fill="#ffd9a0" opacity="0.47"/><rect x="524.0" y="831.4" width="2" height="2.6" fill="#ffd9a0" opacity="0.69"/><rect x="543.5" y="838.9" width="2" height="2.6" fill="#ffd9a0" opacity="0.65"/><rect x="524.0" y="858.7" width="2" height="2.6" fill="#ffd9a0" opacity="0.64"/><rect x="538.2" y="794.1" width="2" height="2.6" fill="#ffd9a0" opacity="0.70"/><rect x="524.0" y="828.8" width="2" height="2.6" fill="#ffd9a0" opacity="0.61"/><rect x="527.9" y="837.2" width="2" height="2.6" fill="#ffd9a0" opacity="0.33"/><rect x="520.0" y="900.2" width="2" height="2.6" fill="#ffd9a0" opacity="0.40"/><rect x="536.8" y="853.8" width="2" height="2.6" fill="#ffd9a0" opacity="0.48"/><rect x="548.7" y="878.4" width="2" height="2.6" fill="#ffd9a0" opacity="0.53"/><rect x="545.6" y="812.2" width="2" height="2.6" fill="#ffd9a0" opacity="0.36"/><rect x="547.0" y="951.9" width="2" height="2.6" fill="#ffd9a0" opacity="0.40"/><rect x="523.3" y="934.7" width="2" height="2.6" fill="#ffd9a0" opacity="0.68"/><rect x="523.5" y="981.0" width="2" height="2.6" fill="#ffd9a0" opacity="0.65"/><rect x="536.9" y="864.7" width="2" height="2.6" fill="#ffd9a0" opacity="0.34"/><rect x="518.3" y="983.8" width="2" height="2.6" fill="#ffd9a0" opacity="0.40"/><rect x="518" y="764" width="32" height="2.5" fill="#ffb84d" opacity="0.55"/><path d="M590 1004 L595 770 L625 770 L630 1004 Z" fill="#4d12a6"/><rect x="616.3" y="833.0" width="2" height="2.6" fill="#ffd9a0" opacity="0.63"/><rect x="612.7" y="840.8" width="2" height="2.6" fill="#ffd9a0" opacity="0.37"/><rect x="616.8" y="792.7" width="2" height="2.6" fill="#ffd9a0" opacity="0.39"/><rect x="611.5" y="960.4" width="2" height="2.6" fill="#ffd9a0" opacity="0.55"/><rect x="602.2" y="974.3" width="2" height="2.6" fill="#ffd9a0" opacity="0.38"/><rect x="593.5" y="835.6" width="2" height="2.6" fill="#ffd9a0" opacity="0.48"/><rect x="595.0" y="815.7" width="2" height="2.6" fill="#ffd9a0" opacity="0.45"/><rect x="611.9" y="806.2" width="2" height="2.6" fill="#ffd9a0" opacity="0.44"/><rect x="622.4" y="987.8" width="2" height="2.6" fill="#ffd9a0" opacity="0.56"/><rect x="615.8" y="903.1" width="2" height="2.6" fill="#ffd9a0" opacity="0.36"/><rect x="594.2" y="781.8" width="2" height="2.6" fill="#ffd9a0" opacity="0.66"/><rect x="616.1" y="984.0" width="2" height="2.6" fill="#ffd9a0" opacity="0.31"/><rect x="614.0" y="881.2" width="2" height="2.6" fill="#ffd9a0" opacity="0.59"/><rect x="603.5" y="991.9" width="2" height="2.6" fill="#ffd9a0" opacity="0.33"/><rect x="611.0" y="935.7" width="2" height="2.6" fill="#ffd9a0" opacity="0.66"/><rect x="617.3" y="928.6" width="2" height="2.6" fill="#ffd9a0" opacity="0.62"/><rect x="623.2" y="853.3" width="2" height="2.6" fill="#ffd9a0" opacity="0.57"/><rect x="622.7" y="964.4" width="2" height="2.6" fill="#ffd9a0" opacity="0.47"/><rect x="619.1" y="962.8" width="2" height="2.6" fill="#ffd9a0" opacity="0.53"/><rect x="613.6" y="859.8" width="2" height="2.6" fill="#ffd9a0" opacity="0.53"/><rect x="613.1" y="795.2" width="2" height="2.6" fill="#ffd9a0" opacity="0.56"/><rect x="594" y="770" width="32" height="2.5" fill="#ffb84d" opacity="0.55"/><path d="M426 760 Q546 740 706 752 L706 776 Q546 764 426 782 Z" fill="#3d0e85"/><path d="M426 760 Q546 740 706 752" fill="none" stroke="#ffb84d" stroke-width="1.5" opacity="0.5"/><rect x="652.0" y="832.0" width="26.0" height="172.0" fill="#4d12a6"/><rect x="652.0" y="832.0" width="26.0" height="2" fill="#ffb84d" opacity="0.5"/><rect x="673.9" y="973.7" width="2" height="2.6" fill="#ffd9a0" opacity="0.59"/><rect x="662.4" y="951.7" width="2" height="2.6" fill="#ffd9a0" opacity="0.53"/><rect x="663.4" y="967.4" width="2" height="2.6" fill="#ffd9a0" opacity="0.33"/><rect x="669.3" y="844.5" width="2" height="2.6" fill="#ffd9a0" opacity="0.54"/><rect x="664.1" y="875.0" width="2" height="2.6" fill="#ffd9a0" opacity="0.58"/><rect x="664.4" y="933.4" width="2" height="2.6" fill="#ffd9a0" opacity="0.67"/><rect x="659.9" y="841.7" width="2" height="2.6" fill="#ffd9a0" opacity="0.42"/><rect x="667.9" y="870.8" width="2" height="2.6" fill="#ffd9a0" opacity="0.37"/><rect x="672.2" y="940.3" width="2" height="2.6" fill="#ffd9a0" opacity="0.48"/><rect x="671.9" y="889.7" width="2" height="2.6" fill="#ffd9a0" opacity="0.57"/><rect x="658.8" y="905.5" width="2" height="2.6" fill="#ffd9a0" opacity="0.62"/><rect x="682.0" y="796.0" width="34.0" height="208.0" fill="#4d12a6"/><rect x="682.0" y="796.0" width="34.0" height="2" fill="#ffb84d" opacity="0.5"/><rect x="709.7" y="969.5" width="2" height="2.6" fill="#ffd9a0" opacity="0.45"/><rect x="700.7" y="863.5" width="2" height="2.6" fill="#ffd9a0" opacity="0.35"/><rect x="698.4" y="961.4" width="2" height="2.6" fill="#ffd9a0" opacity="0.64"/><rect x="704.2" y="982.6" width="2" height="2.6" fill="#ffd9a0" opacity="0.41"/><rect x="689.6" y="888.7" width="2" height="2.6" fill="#ffd9a0" opacity="0.41"/><rect x="690.8" y="881.8" width="2" height="2.6" fill="#ffd9a0" opacity="0.55"/><rect x="698.3" y="863.3" width="2" height="2.6" fill="#ffd9a0" opacity="0.64"/><rect x="711.5" y="889.1" width="2" height="2.6" fill="#ffd9a0" opacity="0.33"/><rect x="685.9" y="968.1" width="2" height="2.6" fill="#ffd9a0" opacity="0.32"/><rect x="704.1" y="911.3" width="2" height="2.6" fill="#ffd9a0" opacity="0.42"/><rect x="706.4" y="807.6" width="2" height="2.6" fill="#ffd9a0" opacity="0.35"/><rect x="697.3" y="808.6" width="2" height="2.6" fill="#ffd9a0" opacity="0.63"/><rect x="691.4" y="830.5" width="2" height="2.6" fill="#ffd9a0" opacity="0.32"/><rect x="702.0" y="887.9" width="2" height="2.6" fill="#ffd9a0" opacity="0.55"/><rect x="702.7" y="955.8" width="2" height="2.6" fill="#ffd9a0" opacity="0.68"/><rect x="703.5" y="841.5" width="2" height="2.6" fill="#ffd9a0" opacity="0.49"/><rect x="689.8" y="806.0" width="2" height="2.6" fill="#ffd9a0" opacity="0.49"/><rect x="720.0" y="840.0" width="30.0" height="164.0" fill="#4d12a6"/><rect x="720.0" y="840.0" width="30.0" height="2" fill="#ffb84d" opacity="0.5"/><rect x="739.4" y="873.8" width="2" height="2.6" fill="#ffd9a0" opacity="0.41"/><rect x="731.0" y="948.4" width="2" height="2.6" fill="#ffd9a0" opacity="0.51"/><rect x="737.1" y="956.9" width="2" height="2.6" fill="#ffd9a0" opacity="0.46"/><rect x="741.2" y="978.5" width="2" height="2.6" fill="#ffd9a0" opacity="0.33"/><rect x="744.4" y="952.0" width="2" height="2.6" fill="#ffd9a0" opacity="0.35"/><rect x="733.4" y="938.1" width="2" height="2.6" fill="#ffd9a0" opacity="0.66"/><rect x="731.7" y="929.9" width="2" height="2.6" fill="#ffd9a0" opacity="0.65"/><rect x="741.3" y="984.0" width="2" height="2.6" fill="#ffd9a0" opacity="0.49"/><rect x="738.0" y="877.5" width="2" height="2.6" fill="#ffd9a0" opacity="0.59"/><rect x="741.8" y="940.4" width="2" height="2.6" fill="#ffd9a0" opacity="0.59"/><rect x="727.9" y="977.6" width="2" height="2.6" fill="#ffd9a0" opacity="0.69"/><rect x="745.5" y="925.3" width="2" height="2.6" fill="#ffd9a0" opacity="0.62"/><rect x="754.0" y="804.0" width="40.0" height="200.0" fill="#4d12a6"/><rect x="754.0" y="804.0" width="40.0" height="2" fill="#ffb84d" opacity="0.5"/><rect x="767.6" y="975.8" width="2" height="2.6" fill="#ffd9a0" opacity="0.64"/><rect x="768.5" y="826.9" width="2" height="2.6" fill="#ffd9a0" opacity="0.48"/><rect x="775.2" y="950.3" width="2" height="2.6" fill="#ffd9a0" opacity="0.49"/><rect x="757.9" y="957.6" width="2" height="2.6" fill="#ffd9a0" opacity="0.33"/><rect x="783.4" y="843.1" width="2" height="2.6" fill="#ffd9a0" opacity="0.43"/><rect x="783.0" y="837.3" width="2" height="2.6" fill="#ffd9a0" opacity="0.36"/><rect x="774.0" y="942.2" width="2" height="2.6" fill="#ffd9a0" opacity="0.64"/><rect x="779.7" y="982.2" width="2" height="2.6" fill="#ffd9a0" opacity="0.50"/><rect x="788.3" y="827.5" width="2" height="2.6" fill="#ffd9a0" opacity="0.39"/><rect x="774.4" y="864.2" width="2" height="2.6" fill="#ffd9a0" opacity="0.59"/><rect x="778.1" y="906.1" width="2" height="2.6" fill="#ffd9a0" opacity="0.64"/><rect x="775.5" y="868.1" width="2" height="2.6" fill="#ffd9a0" opacity="0.45"/><rect x="784.9" y="974.1" width="2" height="2.6" fill="#ffd9a0" opacity="0.38"/><rect x="785.1" y="986.3" width="2" height="2.6" fill="#ffd9a0" opacity="0.51"/><rect x="775.9" y="848.2" width="2" height="2.6" fill="#ffd9a0" opacity="0.51"/><rect x="773.6" y="920.9" width="2" height="2.6" fill="#ffd9a0" opacity="0.31"/><rect x="789.0" y="904.9" width="2" height="2.6" fill="#ffd9a0" opacity="0.46"/><rect x="783.4" y="913.3" width="2" height="2.6" fill="#ffd9a0" opacity="0.50"/><rect x="779.8" y="823.9" width="2" height="2.6" fill="#ffd9a0" opacity="0.52"/><rect x="770.7" y="984.2" width="2" height="2.6" fill="#ffd9a0" opacity="0.67"/><rect x="799.0" y="848.0" width="28.0" height="156.0" fill="#4d12a6"/><rect x="799.0" y="848.0" width="28.0" height="2" fill="#ffb84d" opacity="0.5"/><rect x="807.7" y="920.3" width="2" height="2.6" fill="#ffd9a0" opacity="0.35"/><rect x="811.1" y="966.9" width="2" height="2.6" fill="#ffd9a0" opacity="0.66"/><rect x="812.0" y="899.1" width="2" height="2.6" fill="#ffd9a0" opacity="0.38"/><rect x="815.0" y="981.8" width="2" height="2.6" fill="#ffd9a0" opacity="0.35"/><rect x="818.4" y="859.1" width="2" height="2.6" fill="#ffd9a0" opacity="0.38"/><rect x="806.8" y="949.4" width="2" height="2.6" fill="#ffd9a0" opacity="0.43"/><rect x="809.5" y="940.3" width="2" height="2.6" fill="#ffd9a0" opacity="0.34"/><rect x="817.3" y="872.7" width="2" height="2.6" fill="#ffd9a0" opacity="0.50"/><rect x="807.3" y="882.9" width="2" height="2.6" fill="#ffd9a0" opacity="0.51"/><rect x="811.2" y="907.1" width="2" height="2.6" fill="#ffd9a0" opacity="0.47"/><line x1="767" y1="804" x2="767" y2="766" stroke="#4d12a6" stroke-width="2"/><rect x="850" y="862" width="8" height="142" fill="#4d12a6"/><path d="M826 862 Q854 838 882 862 Q854 871 826 862 Z" fill="#5a17b8"/><line x1="854" y1="862" x2="828.0" y2="842" stroke="#4d12a6" stroke-width="1.1" opacity="0.8"/><line x1="854" y1="862" x2="836.5" y2="842" stroke="#4d12a6" stroke-width="1.1" opacity="0.8"/><line x1="854" y1="862" x2="845.0" y2="842" stroke="#4d12a6" stroke-width="1.1" opacity="0.8"/><line x1="854" y1="862" x2="853.5" y2="842" stroke="#4d12a6" stroke-width="1.1" opacity="0.8"/><line x1="854" y1="862" x2="862.0" y2="842" stroke="#4d12a6" stroke-width="1.1" opacity="0.8"/><line x1="854" y1="862" x2="870.5" y2="842" stroke="#4d12a6" stroke-width="1.1" opacity="0.8"/><line x1="854" y1="862" x2="879.0" y2="842" stroke="#4d12a6" stroke-width="1.1" opacity="0.8"/><rect x="892" y="890" width="8" height="114" fill="#4d12a6"/><path d="M868 890 Q896 866 924 890 Q896 899 868 890 Z" fill="#5a17b8"/><line x1="896" y1="890" x2="870.0" y2="870" stroke="#4d12a6" stroke-width="1.1" opacity="0.8"/><line x1="896" y1="890" x2="878.5" y2="870" stroke="#4d12a6" stroke-width="1.1" opacity="0.8"/><line x1="896" y1="890" x2="887.0" y2="870" stroke="#4d12a6" stroke-width="1.1" opacity="0.8"/><line x1="896" y1="890" x2="895.5" y2="870" stroke="#4d12a6" stroke-width="1.1" opacity="0.8"/><line x1="896" y1="890" x2="904.0" y2="870" stroke="#4d12a6" stroke-width="1.1" opacity="0.8"/><line x1="896" y1="890" x2="912.5" y2="870" stroke="#4d12a6" stroke-width="1.1" opacity="0.8"/><line x1="896" y1="890" x2="921.0" y2="870" stroke="#4d12a6" stroke-width="1.1" opacity="0.8"/><rect x="934" y="848" width="8" height="156" fill="#4d12a6"/><path d="M910 848 Q938 824 966 848 Q938 857 910 848 Z" fill="#5a17b8"/><line x1="938" y1="848" x2="912.0" y2="828" stroke="#4d12a6" stroke-width="1.1" opacity="0.8"/><line x1="938" y1="848" x2="920.5" y2="828" stroke="#4d12a6" stroke-width="1.1" opacity="0.8"/><line x1="938" y1="848" x2="929.0" y2="828" stroke="#4d12a6" stroke-width="1.1" opacity="0.8"/><line x1="938" y1="848" x2="937.5" y2="828" stroke="#4d12a6" stroke-width="1.1" opacity="0.8"/><line x1="938" y1="848" x2="946.0" y2="828" stroke="#4d12a6" stroke-width="1.1" opacity="0.8"/><line x1="938" y1="848" x2="954.5" y2="828" stroke="#4d12a6" stroke-width="1.1" opacity="0.8"/><line x1="938" y1="848" x2="963.0" y2="828" stroke="#4d12a6" stroke-width="1.1" opacity="0.8"/><rect x="0" y="1001" width="1000" height="3" fill="#4d12a6"/></g><rect x="0" y="1016" width="1000" height="2" fill="#c7bce0" opacity="0.40"/><rect x="0" y="1038" width="1000" height="2" fill="#c7bce0" opacity="0.35"/><rect x="0" y="1060" width="1000" height="2" fill="#c7bce0" opacity="0.30"/><rect x="0" y="1082" width="1000" height="2" fill="#c7bce0" opacity="0.25"/><rect x="0" y="1104" width="1000" height="2" fill="#c7bce0" opacity="0.20"/><rect x="0" y="1126" width="1000" height="2" fill="#c7bce0" opacity="0.15"/>
</svg>