<svg xmlns="http://www.w3.org/2000/svg" viewBox="0 0 600 600" width="600" height="600" role="img" aria-label="RedRelay.ai mark: a red relay loop flowing into a network sphere">
<defs>
  <linearGradient id="bgd" x1="0" y1="0" x2="1" y2="1"><stop offset="0" stop-color="#0e0c12"/><stop offset="1" stop-color="#17121c"/></linearGradient>
  <linearGradient id="redg" x1="0" y1="0" x2="1" y2="1"><stop offset="0" stop-color="#ff5140"/><stop offset="0.55" stop-color="#e2202a"/><stop offset="1" stop-color="#a3101b"/></linearGradient>
  <radialGradient id="glow" cx="0.5" cy="0.5" r="0.5"><stop offset="0" stop-color="#ff3b30" stop-opacity="0.34"/><stop offset="1" stop-color="#ff3b30" stop-opacity="0"/></radialGradient>
</defs>
<rect width="600" height="600" fill="url(#bgd)"/><circle cx="410" cy="300" r="220" fill="url(#glow)"/><path d="M362 300 C362 244 286 230 240 248 C188 268 180 322 212 348 C250 378 332 360 362 300 Z" fill="none" stroke="url(#redg)" stroke-width="34" stroke-linejoin="round" stroke-linecap="round"/><circle cx="412" cy="300" r="86" fill="none" stroke="#ff3b30" stroke-opacity="0.30" stroke-width="2"/><line x1="412" y1="300" x2="498.0" y2="300.0" stroke="#ff3b30" stroke-opacity="0.6" stroke-width="2.2"/><line x1="412" y1="300" x2="472.8" y2="360.8" stroke="#ff3b30" stroke-opacity="0.6" stroke-width="2.2"/><line x1="412" y1="300" x2="412.0" y2="386.0" stroke="#ff3b30" stroke-opacity="0.6" stroke-width="2.2"/><line x1="412" y1="300" x2="351.2" y2="360.8" stroke="#ff3b30" stroke-opacity="0.6" stroke-width="2.2"/><line x1="412" y1="300" x2="326.0" y2="300.0" stroke="#ff3b30" stroke-opacity="0.6" stroke-width="2.2"/><line x1="412" y1="300" x2="351.2" y2="239.2" stroke="#ff3b30" stroke-opacity="0.6" stroke-width="2.2"/><line x1="412" y1="300" x2="412.0" y2="214.0" stroke="#ff3b30" stroke-opacity="0.6" stroke-width="2.2"/><line x1="412" y1="300" x2="472.8" y2="239.2" stroke="#ff3b30" stroke-opacity="0.6" stroke-width="2.2"/><line x1="498.0" y1="300.0" x2="472.8" y2="360.8" stroke="#ff3b30" stroke-opacity="0.35" stroke-width="1.8"/><line x1="472.8" y1="360.8" x2="412.0" y2="386.0" stroke="#ff3b30" stroke-opacity="0.35" stroke-width="1.8"/><line x1="412.0" y1="386.0" x2="351.2" y2="360.8" stroke="#ff3b30" stroke-opacity="0.35" stroke-width="1.8"/><line x1="351.2" y1="360.8" x2="326.0" y2="300.0" stroke="#ff3b30" stroke-opacity="0.35" stroke-width="1.8"/><line x1="326.0" y1="300.0" x2="351.2" y2="239.2" stroke="#ff3b30" stroke-opacity="0.35" stroke-width="1.8"/><line x1="351.2" y1="239.2" x2="412.0" y2="214.0" stroke="#ff3b30" stroke-opacity="0.35" stroke-width="1.8"/><line x1="412.0" y1="214.0" x2="472.8" y2="239.2" stroke="#ff3b30" stroke-opacity="0.35" stroke-width="1.8"/><line x1="472.8" y1="239.2" x2="498.0" y2="300.0" stroke="#ff3b30" stroke-opacity="0.35" stroke-width="1.8"/><line x1="412" y1="300" x2="382.0" y2="282.0" stroke="#ff5a4d" stroke-opacity="0.6" stroke-width="2"/><line x1="412" y1="300" x2="438.0" y2="324.0" stroke="#ff5a4d" stroke-opacity="0.6" stroke-width="2"/><circle cx="412" cy="300" r="11" fill="#ff4233"/><circle cx="498.0" cy="300.0" r="8" fill="#ff3b30"/><circle cx="472.8" cy="360.8" r="8" fill="#ff3b30"/><circle cx="412.0" cy="386.0" r="8" fill="#ff3b30"/><circle cx="351.2" cy="360.8" r="8" fill="#ff3b30"/><circle cx="326.0" cy="300.0" r="8" fill="#ff3b30"/><circle cx="351.2" cy="239.2" r="8" fill="#ff3b30"/><circle cx="412.0" cy="214.0" r="8" fill="#ff3b30"/><circle cx="472.8" cy="239.2" r="8" fill="#ff3b30"/><circle cx="382.0" cy="282.0" r="6" fill="#ff7a6e"/><circle cx="438.0" cy="324.0" r="6" fill="#ff7a6e"/>
</svg>